<?xml version="1.0" encoding="utf-8"?>
<svg viewBox="0 58.412 458.954 289.108" xmlns="http://www.w3.org/2000/svg">
  <defs>
    <path id="path-1" d="M 74.37 293.666 C 90.456 287.426 102.919 286.926 115.651 286.926 C 133.922 288.599 145.659 292.017 158.265 297.564 C 178.412 307.28 192.894 314.985 206.403 323.982 C 217.029 329.293 224.162 333.216 231.475 336.626 C 241.07 339.81 249.39 342.338 258.165 343.374 C 277.582 343.374 293.038 342.299 309.415 339.596 C 333.519 334.196 348.538 322.843 366.749 314.633 C 374.585 309.674 376.514 307.717 379.018 305.169 C 381.317 301.826 383.884 299.065 386.031 296.169 L 386.52 295.51 C 387.799 293.974 389.753 291.927 390.351 290.103" style="fill: none;"/>
  </defs>
  <g transform="matrix(2.91568, 0, 0, 2.846174, 30.11776, -4722.156738)" style="">
    <ellipse cx="68.713" cy="1749.805" fill="#ececec" rx="23.155" ry="4.478"/>
    <path fill="#ffcc80" fill-rule="evenodd" stroke="#000" d="m77.95 1726.472 5.82-4.007-1.013-2.828 8.478-4.478 4.301 7.07-8.73.118 1.012 3.182-11.008 2.593z"/>
    <path fill="#ffcc80" stroke="#000" stroke-linecap="round" stroke-linejoin="round" d="M54.796 1709.65a9.604 7.64 42.394 0 0 2.491 7.727 9.604 7.64 42.394 0 0 3.212 2.621 10.468 8.12 0 0 0-1.733 4.46 10.468 8.12 0 0 0 10.47 8.12 10.468 8.12 0 0 0 10.466-8.12 10.468 8.12 0 0 0-1.757-4.492 7.64 9.604 47.606 0 0 2.735-2.34 7.64 9.604 47.606 0 0 2.491-7.726 7.64 9.604 47.606 0 0-7.13 3.935 7.64 9.604 47.606 0 0-2.014 3.415 10.468 8.12 0 0 0-4.791-.91 10.468 8.12 0 0 0-5.164 1.066 9.604 7.64 42.394 0 0-2.147-3.821 9.604 7.64 42.394 0 0-7.13-3.934z"/>
    <path d="M82.342 1710.843c.677 1.881-1.085 4.669-1.085 4.669l-3.174-2.701s2.424-1.955 4.259-1.968z"/>
    <path fill="#333" d="M54.795 1709.65c-.95 2.64 1.524 6.554 1.524 6.554l4.454-3.792s-3.402-2.745-5.978-2.762z"/>
    <ellipse cx="-1165.101" cy="1356.338" rx="1.727" ry="1.716" transform="matrix(.76075 -.64905 .70121 .71295 0 0)"/>
    <ellipse cx="-1164.525" cy="1355.766" fill="#fff" rx=".576" ry=".572" transform="matrix(.76075 -.64905 .70121 .71295 0 0)"/>
    <ellipse cx="-1207.99" cy="1319.224" rx="1.722" ry="1.721" transform="matrix(.73498 -.67809 .72854 .685 0 0)"/>
    <circle cx="-1207.416" cy="1318.65" r=".574" fill="#fff" transform="matrix(.73498 -.67809 .72854 .685 0 0)"/>
    <g transform="matrix(1.7815 0 0 1.3434 73.717 305.956)">
      <ellipse cx="-2.511" cy="1058.688" rx="1.666" ry=".662"/>
      <path d="M-4.414 1057.207a.555.555 0 0 0-.518.537c-.035.744.55 1.315 1.272 1.586a3.4 3.4 0 0 0 2.285.022c.731-.257 1.332-.802 1.332-1.547.012-.752-1.123-.752-1.111 0 0 .103-.822.123-1.279.283-.456.16.475.184.03.017-.445-.167-1.424-.204-1.42-.308a.556.556 0 0 0-.591-.59z" color="#000" font-family="sans-serif" font-weight="400" overflow="visible" style="line-height:normal;text-indent:0;text-align:start;text-decoration-line:none;text-decoration-style:solid;text-decoration-color:#000;text-transform:none;block-progression:tb;white-space:normal;isolation:auto;mix-blend-mode:normal;solid-color:#000;solid-opacity:1"/>
      <ellipse cx="-2.528" cy="1058.972" rx=".972" ry=".397"/>
    </g>
    <ellipse cx="473.377" cy="1574.411" fill="#ff2a2a" rx="2.173" ry="1.144" transform="matrix(.9087 .41745 -.23336 .9724 0 0)"/>
    <ellipse cx="1994.135" cy="-1445.732" fill="#ff2a2a" rx="1.945" ry="1.481" transform="matrix(-.67545 .7374 -.9839 -.17869 0 0)"/>
    <ellipse cx="69.142" cy="1725.524" rx="1.225" ry=".308"/>
    <path fill="#ff2a2a" stroke="#000" stroke-linecap="round" d="M45.95 1705.35a19.714 18.297.784 0 0-4.249 8.14 19.714 18.297.784 0 0 6.293 17.398l10.07-10.603a4.553 4.227 0 0 1-.536-.828 4.553 4.227 0 0 1 2.308-5.585 4.553 4.227 0 0 1 4.16.224l10.167-10.529a19.714 18.297.784 0 0-19.346-3.77 19.714 18.297.784 0 0-8.866 5.552z"/>
    <path fill="#f2f2f2" stroke="#000" stroke-linecap="round" d="M91.862 1731.474a19.69 18.318 0 0 1-9.892 15.889 19.69 18.318 0 0 1-19.737-.075 19.69 18.318 0 0 1-9.752-15.963l19.69.149z" transform="rotate(.079) skewX(-.013)"/>
    <path fill="#fff" d="M83.104 1733.023a15.325 14.257-.002 0 1-7.716 12.356 15.325 14.257-.002 0 1-15.36-.076 15.325 14.257-.002 0 1-7.573-12.433l15.324.134z"/>
    <ellipse cx="809.816" cy="1577.778" fill="#fff" stroke="#000" stroke-linecap="round" stroke-width="1.001" rx="4.501" ry="4.282" transform="matrix(.92483 .3804 -.4307 .9025 0 0)"/>
    <ellipse cx="810.61" cy="1578.18" rx="1.5" ry="1.426" transform="matrix(.925 .37998 -.43113 .90229 0 0)"/>
    <rect width="5.366" height="3.319" x="57.088" y="1729.935" fill="#ffcc80" stroke="#000" stroke-linecap="round" stroke-linejoin="round" ry="1.267"/>
    <rect width="5.366" height="3.319" x="76.324" y="1729.602" fill="#ffcc80" stroke="#000" stroke-linecap="round" stroke-linejoin="round" ry="1.267"/>
    <path fill="red" fill-rule="evenodd" d="m88.043 1717.789-.451 1.195 1.892.384-2.027 2.135 6.578-.085-3.109-5.166z"/>
  </g>
  <path style="fill: rgb(51, 51, 51); white-space: pre;"/>
  <path d="M 44.371 143.605 L 44.371 140.177 L 38.16 140.177 L 38.16 138.566 L 44.693 129.289 L 46.129 129.289 L 46.129 138.566 L 48.062 138.566 L 48.062 140.177 L 46.129 140.177 L 46.129 143.605 Z M 44.371 138.566 L 44.371 132.111 L 39.888 138.566 Z" transform="matrix(11.75225, 0, 0, 10.117366, -433.689087, -1195.814331)" style="fill: rgb(51, 51, 51); white-space: pre;"/>
  <path d="M 44.371 143.605 L 44.371 140.177 L 38.16 140.177 L 38.16 138.566 L 44.693 129.289 L 46.129 129.289 L 46.129 138.566 L 48.062 138.566 L 48.062 140.177 L 46.129 140.177 L 46.129 143.605 Z M 44.371 138.566 L 44.371 132.111 L 39.888 138.566 Z" transform="matrix(11.75225, 0, 0, 10.117366, -119.805977, -1195.926025)" style="fill: rgb(51, 51, 51); white-space: pre;"/>
  <path d="M 134.85 316.935 L 134.85 302.619 L 140.25 302.619 Q 141.676 302.619 142.428 302.755 Q 143.483 302.931 144.196 303.424 Q 144.909 303.917 145.343 304.806 Q 145.778 305.695 145.778 306.759 Q 145.778 308.585 144.616 309.85 Q 143.453 311.115 140.416 311.115 L 136.745 311.115 L 136.745 316.935 Z M 136.745 309.425 L 140.446 309.425 Q 142.282 309.425 143.053 308.742 Q 143.825 308.058 143.825 306.818 Q 143.825 305.919 143.37 305.28 Q 142.916 304.64 142.174 304.435 Q 141.696 304.308 140.407 304.308 L 136.745 304.308 Z M 147.304 311.749 Q 147.304 308.869 148.906 307.482 Q 150.243 306.33 152.167 306.33 Q 154.306 306.33 155.663 307.731 Q 157.021 309.132 157.021 311.603 Q 157.021 313.605 156.42 314.752 Q 155.82 315.9 154.672 316.535 Q 153.525 317.169 152.167 317.169 Q 149.989 317.169 148.647 315.773 Q 147.304 314.376 147.304 311.749 Z M 149.111 311.749 Q 149.111 313.742 149.98 314.733 Q 150.849 315.724 152.167 315.724 Q 153.476 315.724 154.345 314.728 Q 155.214 313.732 155.214 311.691 Q 155.214 309.767 154.34 308.776 Q 153.466 307.785 152.167 307.785 Q 150.849 307.785 149.98 308.771 Q 149.111 309.757 149.111 311.749 Z M 159.092 316.935 L 159.092 302.619 L 160.85 302.619 L 160.85 310.783 L 165.01 306.564 L 167.285 306.564 L 163.32 310.412 L 167.686 316.935 L 165.518 316.935 L 162.09 311.632 L 160.85 312.824 L 160.85 316.935 Z M 176.185 313.595 L 178.001 313.82 Q 177.571 315.412 176.409 316.29 Q 175.247 317.169 173.441 317.169 Q 171.165 317.169 169.832 315.768 Q 168.499 314.367 168.499 311.837 Q 168.499 309.22 169.847 307.775 Q 171.194 306.33 173.343 306.33 Q 175.423 306.33 176.741 307.746 Q 178.06 309.162 178.06 311.73 Q 178.06 311.886 178.05 312.199 L 170.316 312.199 Q 170.413 313.908 171.282 314.816 Q 172.151 315.724 173.45 315.724 Q 174.417 315.724 175.101 315.216 Q 175.784 314.708 176.185 313.595 Z M 170.413 310.753 L 176.204 310.753 Q 176.087 309.445 175.54 308.79 Q 174.7 307.775 173.362 307.775 Q 172.151 307.775 171.326 308.585 Q 170.501 309.396 170.413 310.753 Z M 180.209 316.935 L 180.209 306.564 L 181.781 306.564 L 181.781 308.019 Q 182.27 307.257 183.08 306.793 Q 183.891 306.33 184.926 306.33 Q 186.078 306.33 186.815 306.808 Q 187.553 307.287 187.855 308.146 Q 189.086 306.33 191.059 306.33 Q 192.602 306.33 193.432 307.184 Q 194.262 308.039 194.262 309.816 L 194.262 316.935 L 192.514 316.935 L 192.514 310.402 Q 192.514 309.347 192.343 308.883 Q 192.172 308.419 191.723 308.136 Q 191.273 307.853 190.668 307.853 Q 189.574 307.853 188.852 308.581 Q 188.129 309.308 188.129 310.91 L 188.129 316.935 L 186.371 316.935 L 186.371 310.197 Q 186.371 309.025 185.941 308.439 Q 185.512 307.853 184.535 307.853 Q 183.793 307.853 183.163 308.244 Q 182.533 308.634 182.25 309.386 Q 181.967 310.138 181.967 311.554 L 181.967 316.935 Z M 196.211 311.749 Q 196.211 308.869 197.812 307.482 Q 199.15 306.33 201.074 306.33 Q 203.213 306.33 204.57 307.731 Q 205.928 309.132 205.928 311.603 Q 205.928 313.605 205.327 314.752 Q 204.727 315.9 203.579 316.535 Q 202.432 317.169 201.074 317.169 Q 198.896 317.169 197.554 315.773 Q 196.211 314.376 196.211 311.749 Z M 198.018 311.749 Q 198.018 313.742 198.887 314.733 Q 199.756 315.724 201.074 315.724 Q 202.383 315.724 203.252 314.728 Q 204.121 313.732 204.121 311.691 Q 204.121 309.767 203.247 308.776 Q 202.373 307.785 201.074 307.785 Q 199.756 307.785 198.887 308.771 Q 198.018 309.757 198.018 311.749 Z M 207.989 316.935 L 207.989 306.564 L 209.571 306.564 L 209.571 308.039 Q 210.714 306.33 212.872 306.33 Q 213.809 306.33 214.596 306.666 Q 215.382 307.003 215.772 307.55 Q 216.163 308.097 216.319 308.849 Q 216.417 309.337 216.417 310.558 L 216.417 316.935 L 214.659 316.935 L 214.659 310.626 Q 214.659 309.552 214.454 309.02 Q 214.249 308.488 213.726 308.17 Q 213.204 307.853 212.501 307.853 Q 211.378 307.853 210.562 308.566 Q 209.747 309.279 209.747 311.271 L 209.747 316.935 Z M 224.665 316.935 L 224.665 306.564 L 226.247 306.564 L 226.247 308.039 Q 227.39 306.33 229.548 306.33 Q 230.485 306.33 231.271 306.666 Q 232.058 307.003 232.448 307.55 Q 232.839 308.097 232.995 308.849 Q 233.093 309.337 233.093 310.558 L 233.093 316.935 L 231.335 316.935 L 231.335 310.626 Q 231.335 309.552 231.13 309.02 Q 230.925 308.488 230.402 308.17 Q 229.88 307.853 229.177 307.853 Q 228.054 307.853 227.238 308.566 Q 226.423 309.279 226.423 311.271 L 226.423 316.935 Z M 235.135 311.749 Q 235.135 308.869 236.736 307.482 Q 238.074 306.33 239.998 306.33 Q 242.137 306.33 243.494 307.731 Q 244.851 309.132 244.851 311.603 Q 244.851 313.605 244.251 314.752 Q 243.65 315.9 242.503 316.535 Q 241.355 317.169 239.998 317.169 Q 237.82 317.169 236.477 315.773 Q 235.135 314.376 235.135 311.749 Z M 236.941 311.749 Q 236.941 313.742 237.81 314.733 Q 238.68 315.724 239.998 315.724 Q 241.307 315.724 242.176 314.728 Q 243.045 313.732 243.045 311.691 Q 243.045 309.767 242.171 308.776 Q 241.297 307.785 239.998 307.785 Q 238.68 307.785 237.81 308.771 Q 236.941 309.757 236.941 311.749 Z M 250.751 315.363 L 251.005 316.915 Q 250.262 317.072 249.677 317.072 Q 248.719 317.072 248.192 316.769 Q 247.665 316.466 247.45 315.973 Q 247.235 315.48 247.235 313.898 L 247.235 307.931 L 245.946 307.931 L 245.946 306.564 L 247.235 306.564 L 247.235 303.996 L 248.983 302.941 L 248.983 306.564 L 250.751 306.564 L 250.751 307.931 L 248.983 307.931 L 248.983 313.996 Q 248.983 314.747 249.076 314.962 Q 249.169 315.177 249.379 315.304 Q 249.589 315.431 249.979 315.431 Q 250.272 315.431 250.751 315.363 Z M 258.444 316.935 L 258.444 307.931 L 256.891 307.931 L 256.891 306.564 L 258.444 306.564 L 258.444 305.46 Q 258.444 304.415 258.629 303.908 Q 258.883 303.224 259.523 302.799 Q 260.162 302.374 261.315 302.374 Q 262.057 302.374 262.955 302.55 L 262.692 304.083 Q 262.145 303.986 261.656 303.986 Q 260.856 303.986 260.524 304.328 Q 260.192 304.669 260.192 305.607 L 260.192 306.564 L 262.213 306.564 L 262.213 307.931 L 260.192 307.931 L 260.192 316.935 Z M 262.928 311.749 Q 262.928 308.869 264.53 307.482 Q 265.867 306.33 267.791 306.33 Q 269.93 306.33 271.287 307.731 Q 272.645 309.132 272.645 311.603 Q 272.645 313.605 272.044 314.752 Q 271.444 315.9 270.296 316.535 Q 269.149 317.169 267.791 317.169 Q 265.613 317.169 264.271 315.773 Q 262.928 314.376 262.928 311.749 Z M 264.735 311.749 Q 264.735 313.742 265.604 314.733 Q 266.473 315.724 267.791 315.724 Q 269.1 315.724 269.969 314.728 Q 270.838 313.732 270.838 311.691 Q 270.838 309.767 269.964 308.776 Q 269.09 307.785 267.791 307.785 Q 266.473 307.785 265.604 308.771 Q 264.735 309.757 264.735 311.749 Z M 281.503 316.935 L 281.503 315.412 Q 280.292 317.169 278.212 317.169 Q 277.294 317.169 276.498 316.818 Q 275.702 316.466 275.316 315.934 Q 274.931 315.402 274.775 314.63 Q 274.667 314.113 274.667 312.99 L 274.667 306.564 L 276.425 306.564 L 276.425 312.316 Q 276.425 313.693 276.532 314.171 Q 276.698 314.865 277.235 315.26 Q 277.773 315.656 278.564 315.656 Q 279.355 315.656 280.048 315.25 Q 280.741 314.845 281.029 314.147 Q 281.317 313.449 281.317 312.121 L 281.317 306.564 L 283.075 306.564 L 283.075 316.935 Z M 285.823 316.935 L 285.823 306.564 L 287.405 306.564 L 287.405 308.039 Q 288.548 306.33 290.706 306.33 Q 291.644 306.33 292.43 306.666 Q 293.216 307.003 293.607 307.55 Q 293.997 308.097 294.154 308.849 Q 294.251 309.337 294.251 310.558 L 294.251 316.935 L 292.493 316.935 L 292.493 310.626 Q 292.493 309.552 292.288 309.02 Q 292.083 308.488 291.561 308.17 Q 291.038 307.853 290.335 307.853 Q 289.212 307.853 288.397 308.566 Q 287.581 309.279 287.581 311.271 L 287.581 316.935 Z M 303.676 316.935 L 303.676 315.626 Q 302.69 317.169 300.775 317.169 Q 299.535 317.169 298.495 316.486 Q 297.455 315.802 296.884 314.577 Q 296.313 313.351 296.313 311.759 Q 296.313 310.206 296.83 308.942 Q 297.348 307.677 298.383 307.003 Q 299.418 306.33 300.697 306.33 Q 301.635 306.33 302.367 306.725 Q 303.1 307.121 303.559 307.755 L 303.559 302.619 L 305.307 302.619 L 305.307 316.935 Z M 298.119 311.759 Q 298.119 313.751 298.959 314.738 Q 299.799 315.724 300.941 315.724 Q 302.094 315.724 302.9 314.782 Q 303.705 313.839 303.705 311.906 Q 303.705 309.777 302.885 308.781 Q 302.065 307.785 300.863 307.785 Q 299.691 307.785 298.905 308.742 Q 298.119 309.699 298.119 311.759 Z" transform="matrix(1.116978, 0, 0, 1.249009, -15.594061, -79.987762)" style="fill: rgb(51, 51, 51); white-space: pre;"/>
</svg>