<svg viewBox="0 0 800 500" preserveAspectRatio="none" xmlns="http://www.w3.org/2000/svg" xmlns:xlink="http://www.w3.org/1999/xlink" width="100%" id="blobSvg">
  <g transform="translate(159.70206832885742, 8.680591583251953)">
    <path class="blob" d="M455.5,295Q436,340,409,377.5Q382,415,340,438.5Q298,462,247,474.5Q196,487,151,458.5Q106,430,67.5,393Q29,356,34.5,303Q40,250,42.5,200.5Q45,151,70,103.5Q95,56,149,49.5Q203,43,253,30Q303,17,353,37.5Q403,58,435,101.5Q467,145,471,197.5Q475,250,455.5,295Z" fill="#a29bfe"></path>
  </g>
</svg>